<!--?xml version="1.0" standalone="no"?-->
              <svg id="sw-js-blob-svg" viewBox="0 0 100 100" xmlns="http://www.w3.org/2000/svg" version="1.1">
                    <defs> 
                        <linearGradient id="sw-gradient" x1="0" x2="1" y1="1" y2="0">
                            <stop id="stop1" stop-color="rgba(248, 117, 55, 1)" offset="0%"></stop>
                            <stop id="stop2" stop-color="rgba(251, 168, 31, 1)" offset="100%"></stop>
                        </linearGradient>
                    </defs>
                <path fill="url(#sw-gradient)" d="M24.9,-35.6C31.5,-29.4,35.6,-21.2,34.6,-13.8C33.5,-6.3,27.3,0.2,23.1,5.8C18.9,11.3,16.8,15.8,13.3,20.7C9.8,25.6,4.9,30.9,-1.9,33.5C-8.7,36.1,-17.4,36,-23.3,31.9C-29.1,27.8,-32.2,19.6,-28.8,13.3C-25.4,7,-15.6,2.5,-13,-3.9C-10.5,-10.3,-15.1,-18.8,-14.2,-26.8C-13.2,-34.7,-6.6,-42.2,1.3,-44C9.1,-45.7,18.2,-41.7,24.9,-35.6Z" width="100%" height="100%" transform="translate(50 50)" style="transition: all 0.3s ease 0s;" stroke-width="0"></path>
              </svg>